<?xml version="1.0" encoding="utf-8"?>
<!-- Generator: Adobe Illustrator 16.0.0, SVG Export Plug-In . SVG Version: 6.00 Build 0)  -->
<!DOCTYPE svg PUBLIC "-//W3C//DTD SVG 1.1//EN" "http://www.w3.org/Graphics/SVG/1.1/DTD/svg11.dtd">
<svg version="1.1" id="Layer_1" xmlns="http://www.w3.org/2000/svg" xmlns:xlink="http://www.w3.org/1999/xlink" x="0px" y="0px"
	 width="2500px" height="2500px" viewBox="0 0 2500 2500" enable-background="new 0 0 2500 2500" xml:space="preserve">
<g>
	<path fill-rule="evenodd" clip-rule="evenodd" fill="#FFFFFF" d="M-5.031,2505.003c0-834.683,0-1669.656,0-2504.523
		c835.083,0,1670.059,0,2505.031,0c0,834.748,0,1669.382,0,2504.523C1664.948,2505.003,829.905,2505.003-5.031,2505.003z
		 M1240.331,149.648C630.887,149.643,136,643.952,134.039,1251.799c-1.981,612.096,492.074,1108.397,1099.1,1111.969
		c614.286,3.604,1112.339-494.378,1112.645-1104.165C2346.104,645.092,1852.521,149.658,1240.331,149.648z"/>
	<path fill-rule="evenodd" clip-rule="evenodd" d="M1240.331,149.648c612.189,0.01,1105.772,495.444,1105.452,1109.955
		c-0.306,609.787-498.358,1107.77-1112.645,1104.165c-607.026-3.571-1101.082-499.873-1099.1-1111.969
		C136,643.952,630.887,149.643,1240.331,149.648z M175.852,1257.059c0.011,588.29,475.975,1064.813,1063.761,1065.011
		c585.892,0.199,1064.464-477.248,1064.711-1062.228c0.269-590.112-474.332-1068.56-1060.067-1068.694
		C653.264,191.014,175.842,667.326,175.852,1257.059z"/>
	<path fill-rule="evenodd" clip-rule="evenodd" fill="#FFFFFF" d="M175.852,1257.059
		c-0.01-589.732,477.412-1066.045,1068.405-1065.911c585.735,0.134,1060.336,478.582,1060.067,1068.694
		c-0.247,584.979-478.819,1062.427-1064.711,1062.228C651.826,2321.871,175.863,1845.349,175.852,1257.059z M192.641,1270.627
		c6.569,290.86,115.403,552.336,341.828,758.731c226.409,206.375,496,296.853,801.334,269.895
		c265.387-23.442,491.264-134.833,671.49-330.956c209.552-228.026,301.183-499.466,274.426-808.01
		c-45.274-521.924-491.245-965.466-1072.338-948.563C635.356,228.428,196.627,694.163,192.641,1270.627z"/>
	<path fill-rule="evenodd" clip-rule="evenodd" d="M192.641,1270.627c3.986-576.464,442.716-1042.199,1016.74-1058.903
		c581.093-16.903,1027.064,426.639,1072.338,948.563c26.757,308.544-64.874,579.983-274.426,808.01
		c-180.227,196.123-406.104,307.514-671.49,330.956c-305.334,26.958-574.926-63.52-801.334-269.895
		C308.044,1822.963,199.21,1561.487,192.641,1270.627z M1283.084,1376.174c177.109,0,352.957,0,528.813,0
		c0-30.172,0-58.959,0-89.201c-176.555,0-352.4,0-528.236,0c0-69.696,0-137.93,0-207.651c110.604,0,220.343,0,330.578,0
		c0-25.921-0.795-50.384,0.32-74.758c0.587-12.956-3.983-15.47-15.917-15.455c-240.154,0.324-480.295,0.254-720.437,0.229
		c-2.538,0-5.072-0.438-8.824-0.787c137.033-109.967,263.444-227.988,361.268-372.756
		c173.78,225.425,392.51,396.553,634.941,538.623c22.846-30.123,44.615-58.832,66.206-87.302
		c-248.433-130.622-464.307-301.436-638.899-524.521c13.85-4.744,25.544-8.402,30.502-23.08
		c-47.563-2.732-94.144-5.585-140.756-7.694c-3.35-0.154-7.769,4.534-10.293,7.993c-34.546,47.284-66.137,97.022-103.707,141.747
		C942.06,812.243,792.726,936.992,625.535,1040.49c-26.2,16.216-53.13,31.256-78.849,46.329
		c20.557,25.951,40.988,51.748,61.832,78.058c87.042-50.037,170.566-106.13,252-168.953c0,29.456,0,56.516,0,84.494
		c106.143,0,211.526,0,317.16,0c0,69.482,0,138.029,0,208.028c-172.885,0-344.689,0-516.583,0c0,30.253,0,59.05,0,89.302
		c172.874,0,345.046,0,517.428,0c0,127.13,0,252.814,0,379.844c-195.153,0-389.369,0-583.257,0c0,30.451,0,59.527,0,88.774
		c429.038,0,856.975,0,1285.208,0c0-30.122,0-59.518,0-90.168c-199.956,0-398.666,0-597.389,0
		C1283.084,1629.406,1283.084,1503.891,1283.084,1376.174z M1491.829,1734.706c3.476-4.292,6.601-7.984,9.537-11.807
		c57.486-74.996,108.981-153.946,155.519-236.141c3.763-6.659,7.654-10.033,15.71-10.152c8.758-0.12,17.728-1.982,22.466-12.026
		c-37.21-16.285-73.853-32.332-110.692-48.468c-47.255,99.545-103.28,192.141-166.591,281.801
		C1442.805,1710.347,1467.022,1722.382,1491.829,1734.706z M793.184,1450.784c59.064,88.326,109.684,179.13,140.109,280.855
		c29.097-12.364,58.02-24.647,87.046-36.981c-17.889-58.213-43.098-111.271-73.189-161.9c-20.95-35.237-43.88-69.313-66.382-103.615
		c-2.32-3.524-8.811-7.944-11.631-6.968C843.934,1430.953,819.117,1440.839,793.184,1450.784z"/>
	<path fill-rule="evenodd" clip-rule="evenodd" fill="#FFFFFF" d="M1283.084,1376.174c0,127.717,0,253.232,0,380.023
		c198.723,0,397.433,0,597.389,0c0,30.65,0,60.046,0,90.168c-428.232,0-856.17,0-1285.208,0c0-29.247,0-58.323,0-88.774
		c193.888,0,388.104,0,583.257,0c0-127.029,0-252.714,0-379.844c-172.382,0-344.554,0-517.428,0c0-30.252,0-59.049,0-89.302
		c171.894,0,343.698,0,516.583,0c0-69.999,0-138.546,0-208.028c-105.633,0-211.017,0-317.16,0c0-27.978,0-55.038,0-84.494
		c-81.433,62.823-164.958,118.916-252,168.953c-20.844-26.31-41.275-52.106-61.832-78.058
		c25.719-15.072,52.649-30.113,78.849-46.329c167.191-103.498,316.524-228.247,443.109-378.928
		c37.569-44.725,69.16-94.463,103.707-141.747c2.524-3.458,6.943-8.147,10.293-7.993c46.612,2.109,93.193,4.962,140.756,7.694
		c-4.958,14.678-16.652,18.336-30.502,23.08c174.593,223.085,390.467,393.898,638.899,524.521
		c-21.591,28.47-43.36,57.179-66.206,87.302c-242.432-142.07-461.161-313.198-634.941-538.623
		c-97.823,144.768-224.235,262.789-361.268,372.756c3.752,0.349,6.286,0.787,8.824,0.787c240.141,0.025,480.282,0.095,720.437-0.229
		c11.934-0.015,16.504,2.499,15.917,15.455c-1.115,24.374-0.32,48.837-0.32,74.758c-110.235,0-219.975,0-330.578,0
		c0,69.721,0,137.955,0,207.651c175.836,0,351.682,0,528.236,0c0,30.242,0,59.029,0,89.201
		C1636.041,1376.174,1460.193,1376.174,1283.084,1376.174z"/>
	<path fill-rule="evenodd" clip-rule="evenodd" fill="#FFFFFF" d="M1491.829,1734.706c-24.807-12.324-49.024-24.359-74.052-36.793
		c63.311-89.66,119.336-182.256,166.591-281.801c36.84,16.136,73.482,32.183,110.692,48.468
		c-4.738,10.044-13.708,11.906-22.466,12.026c-8.056,0.119-11.947,3.493-15.71,10.152
		c-46.537,82.194-98.032,161.145-155.519,236.141C1498.43,1726.722,1495.305,1730.414,1491.829,1734.706z"/>
	<path fill-rule="evenodd" clip-rule="evenodd" fill="#FFFFFF" d="M793.184,1450.784c25.933-9.945,50.75-19.831,75.953-28.609
		c2.821-0.977,9.311,3.443,11.631,6.968c22.502,34.303,45.432,68.378,66.382,103.615c30.092,50.63,55.301,103.688,73.189,161.9
		c-29.026,12.334-57.949,24.617-87.046,36.981C902.868,1629.914,852.249,1539.11,793.184,1450.784z"/>
</g>
</svg>
